inDegrees=yes
name=ik_lifting_orientations
DataType=double
version=3
OpenSimVersion=4.5-2024-01-10-34fd6af
endheader
time	pelvis_tilt	pelvis_list	pelvis_rotation	pelvis_tx	pelvis_ty	pelvis_tz	hip_flexion_r	hip_adduction_r	hip_rotation_r	knee_angle_r	knee_angle_r_beta	ankle_angle_r	subtalar_angle_r	mtp_angle_r	hip_flexion_l	hip_adduction_l	hip_rotation_l	knee_angle_l	knee_angle_l_beta	ankle_angle_l	subtalar_angle_l	mtp_angle_l	lumbar_extension	lumbar_bending	lumbar_rotation	arm_flex_r	arm_add_r	arm_rot_r	elbow_flex_r	pro_sup_r	wrist_flex_r	wrist_dev_r	arm_flex_l	arm_add_l	arm_rot_l	elbow_flex_l	pro_sup_l	wrist_flex_l	wrist_dev_l
0.35	-26.20292873754071	7.383968342749432	34.78213752156812	0	0.9399999998679526	0	44.83719059409167	-10.02091260489122	0	60.1990954859653	1.05067242295255	-4.98303595740042	0	0	44.83719059409167	-10.02091260489122	0	60.1990954859653	1.05067242295255	-4.98303595740042	0	0	-34.50724017563505	-14.83645245396126	1.391265099183488	57.14068796612047	-13.87123812381783	-17.00057959604803	0.1503692027319158	-0.1016340722554264	0	0	0	-13.51211592508088	0	90.18041433644825	-0.1016340722554264	0	0
0.36	-25.29663515515213	6.839831447782358	35.06976204999892	0	0.9399999998679526	0	44.83726982788179	-10.02087713468239	0	60.19901935141117	1.050671094153906	-4.983073468686298	0	0	44.83726982788179	-10.02087713468239	0	60.19901935141117	1.050671094153906	-4.983073468686298	0	0	-36.4075177349496	-14.26516730760172	1.410362396751252	59.72318538849382	-14.33406915255517	-17.27909168727674	0.2479986108003158	-0.1015996716947664	0	0	0	-13.51248718181046	0	90.18035318156657	-0.1015996716947664	0	0
0.37	-25.06887728038233	6.539839336561591	34.50344475687346	0	0.9399999998679526	0	44.83735306646184	-10.02084000333861	0	60.19893922580643	1.050669695698288	-4.98311269662105	0	0	44.83735306646184	-10.02084000333861	0	60.19893922580643	1.050669695698288	-4.98311269662105	0	0	-36.64738720669509	-13.23176135787871	2.096147234960452	60.64962917811427	-15.57342288386196	-15.60104123262586	0.1200671436432811	-0.1015635030488479	0	0	0	-13.51287777048557	0	90.18028888350939	-0.1015635030488479	0	0
0.38	-25.07038776669677	6.551458959003813	34.47171250644524	0	0.9399999998679526	0	44.83739733153259	-10.02082022653355	0	60.19889669250322	1.050668953352106	-4.983133592646455	0	0	44.83739733153259	-10.02082022653355	0	60.19889669250322	1.050668953352106	-4.983133592646455	0	0	-37.41032263459321	-13.63209311095983	2.687790376664734	62.46066665103162	-16.26335050514074	-15.57652498654597	0.08532739868297173	-0.1015442809533921	0	0	0	-13.51308523893744	0	90.18025471182892	-0.1015442809533921	0	0
0.39	-25.05954258543017	6.532579749746821	34.48423262881409	0	0.9399999998679526	0	44.83745266424258	-10.02079550549569	0	60.19884355639437	1.050668025952054	-4.983159707396426	0	0	44.83745266424258	-10.02079550549569	0	60.19884355639437	1.050668025952054	-4.983159707396426	0	0	-37.80817389718419	-12.54092404391706	2.710057222908842	63.08135906234783	-17.83824006567421	-13.94662557763485	0.05294188814224948	-0.1015202565783587	0	0	0	-13.51334449677948	0	90.18021200299567	-0.1015202565783587	0	0
0.4	-23.57069541091128	6.507904815435065	33.95609719227815	0	0.9399999998679526	0	44.83749565036723	-10.0207763163491	0	60.19880226354174	1.050667305255819	-4.983179972799502	0	0	44.83749565036723	-10.0207763163491	0	60.19880226354174	1.050667305255819	-4.983179972799502	0	0	-38.84748043218546	-12.1229037858341	3.551105771068755	64.16477479482781	-19.19051080550853	-13.20781750296294	0.03888160469679108	-0.1015015895369343	0	0	0	-13.51354596992243	0	90.18017881805098	-0.1015015895369343	0	0
0.41	-23.55794667967133	6.510020753541715	33.98481676795353	0	0.9399999998679526	0	44.83755463029443	-10.02074990228292	0	60.19874578961112	1.050666319599788	-4.983207880024118	0	0	44.83755463029443	-10.02074990228292	0	60.19874578961112	1.050666319599788	-4.983207880024118	0	0	-38.86265771857288	-12.06163478826939	3.513464265807205	64.95584851191124	-20.01240914481438	-11.86475961634033	0.03649602526888694	-0.1014760070781212	0	0	0	-13.51382179762877	0	90.18013333936545	-0.1014760070781212	0	0
0.42	-22.98414964745417	7.026136729038464	33.17526396009703	0	0.9399999998679526	0	44.83760049365287	-10.02072960368362	0	60.19870147721364	1.050665546202552	-4.983229274068172	0	0	44.83760049365287	-10.02072960368362	0	60.19870147721364	1.050665546202552	-4.983229274068172	0	0	-39.51365419391625	-12.63005882625634	4.027248620361265	65.41930141343363	-20.36620744407285	-11.66413443812888	0.03208100368846915	-0.1014560432276263	0	0	0	-13.51403769302946	0	90.18009784904763	-0.1014560432276263	0	0
0.43	-22.992571885418	7.02677239318405	33.18821196309121	0	0.9399999998679526	0	44.8376712289265	-10.02069797946311	0	60.19863373528765	1.050664363882902	-4.98326266177581	0	0	44.8376712289265	-10.02069797946311	0	60.19863373528765	1.050664363882902	-4.98326266177581	0	0	-39.52770668398958	-12.62459255517665	4.010420178464205	66.06228099413363	-20.80398022925493	-11.16851399113088	0.02984959093868842	-0.1014253551644047	0	0	0	-13.5143686141999	0	90.18004329398015	-0.1014253551644047	0	0
0.44	-22.64065084842976	7.833453601783211	33.68861291795928	0	0.9399999998679526	0	44.83773025485168	-10.02067168784714	0	60.19857707517515	1.050663374977384	-4.983290393790453	0	0	44.83773025485168	-10.02067168784714	0	60.19857707517515	1.050663374977384	-4.983290393790453	0	0	-40.42149429787055	-12.65468898219709	3.257775383806154	66.94118154962304	-20.53115367670393	-11.45169665937574	0.02992425002945613	-0.1013997219393779	0	0	0	-13.51464525160148	0	90.17999772504756	-0.1013997219393779	0	0
0.45	-22.63856615033796	7.834097185627296	33.69711411235908	0	0.9399999998679526	0	44.8378070199089	-10.02063741216261	0	60.19850359242619	1.050662092461472	-4.983326554140938	0	0	44.8378070199089	-10.02063741216261	0	60.19850359242619	1.050662092461472	-4.983326554140938	0	0	-40.41752088781297	-12.6360834299363	3.25616106036148	67.56060888158898	-20.88112945960352	-10.37514441483525	0.0278188108556343	-0.101366417678813	0	0	0	-13.5150043631937	0	90.17993851908956	-0.101366417678813	0	0
0.46	-22.6335934712819	7.833749943132226	33.69836549169816	0	0.9399999998679526	0	44.83787431610327	-10.02060743623001	0	60.19843910486904	1.050660966941273	-4.983358154912227	0	0	44.83787431610327	-10.02060743623001	0	60.19843910486904	1.050660966941273	-4.983358154912227	0	0	-40.82440352110028	-11.56616552895328	3.285832105768524	68.35958404375133	-22.66571875703477	-9.6493964963342	0.0266380197718187	-0.1013372064667442	0	0	0	-13.51531946603125	0	90.17988658946425	-0.1013372064667442	0	0
0.47	-22.62894259573268	7.833249884504151	33.69975768127171	0	0.9399999998679526	0	44.83793815872263	-10.02057899732562	0	60.19837796956055	1.05065989992885	-4.983388129069798	0	0	44.83793815872263	-10.02057899732562	0	60.19837796956055	1.05065989992885	-4.983388129069798	0	0	-40.43194140978142	-12.63688816337172	3.245498556402393	68.57076792343697	-22.76673726945698	-10.53082688746867	0.02667276842158658	-0.1013094994712825	0	0	0	-13.51561828783532	0	90.17983733392857	-0.1013094994712825	0	0
0.48	-22.04197372858669	8.34117209875207	32.87993520286592	0	0.9399999998679526	0	44.8380058259774	-10.02054898639739	0	60.19831298719236	1.05065876577257	-4.983419726400823	0	0	44.8380058259774	-10.02054898639739	0	60.19831298719236	1.05065876577257	-4.983419726400823	0	0	-41.07758015012193	-13.1930335423798	3.763911839888936	69.50126920953242	-23.31281542355345	-9.787059826226532	0.02668952485725595	-0.1012800978307147	0	0	0	-13.51593569799446	0	90.17978506577438	-0.1012800978307147	0	0
0.49	-22.05224963434047	8.335318725842169	32.86834423938297	0	0.9399999998679526	0	44.83804873429843	-10.02052996161405	0	60.1982717965015	1.050658046859393	-4.983439751879494	0	0	44.83804873429843	-10.02052996161405	0	60.1982717965015	1.050658046859393	-4.983439751879494	0	0	-41.05744523397674	-13.20796227225133	3.772062515983759	70.27770556396635	-23.36884718893569	-9.991528538850522	0.02614486738484407	-0.1012614553002848	0	0	0	-13.51613693967605	0	90.17975192440409	-0.1012614553002848	0	0
0.5	-20.89947029799552	7.466374288522576	32.57844071843795	0	0.9399999998679526	0	44.84413186213958	-10.01825352983957	0	60.19223544493636	1.050552692649773	-4.985699039499908	0	0	44.84413186213958	-10.01825352983957	0	60.19223544493636	1.050552692649773	-4.985699039499908	0	0	-41.32717957812305	-12.27700422691153	4.800310591471622	71.81796321635522	-24.41115302617387	-9.512963568781716	0.02373867246688532	-0.09854388785150824	0	0	0	-13.54603918121646	0	90.17492082913795	-0.09854388785150824	0	0
0.51	-20.91019751379658	7.483147297150276	32.60816594878342	0	0.9399999998679526	0	44.84416738091994	-10.01823897912671	0	60.19220111819259	1.050552093535073	-4.985713913470644	0	0	44.84416738091994	-10.01823897912671	0	60.19220111819259	1.050552093535073	-4.985713913470644	0	0	-41.34305505414783	-12.26660877979077	4.737226656768255	71.9312454476989	-25.27173971944842	-9.854690980516684	0.02378056959729379	-0.09852828723550897	0	0	0	-13.5462087159697	0	90.17489309547611	-0.09852828723550897	0	0
0.52	-20.31877397086842	7.958542758350372	31.77503479680085	0	0.9399999998679526	0	44.84420272021697	-10.01822459530117	0	60.1921668001925	1.050551494572979	-4.98572859668092	0	0	44.84420272021697	-10.01822459530117	0	60.1921668001925	1.050551494572979	-4.98572859668092	0	0	-41.96889942101872	-12.83526751452233	5.26542196100561	72.04380507139659	-26.06450212777961	-9.64602110664571	0.02363326358558262	-0.09851273580006979	0	0	0	-13.54637798855158	0	90.17486544924532	-0.09851273580006979	0	0
0.53	-20.30449363944984	7.97357944810078	31.78124540255532	0	0.9399999998679526	0	44.84907671407704	-10.0165079311019	0	60.18736525910987	1.050467691871917	-4.9873896938485	0	0	44.84907671407704	-10.0165079311019	0	60.18736525910987	1.050467691871917	-4.9873896938485	0	0	-41.99479278403225	-12.82167805484781	5.254027501770222	73.96926551614521	-26.59118707771697	-8.391197154369905	0.02272338176449256	-0.09632331721861133	0	0	0	-13.57052181209694	0	90.17097325947306	-0.09632331721861133	0	0
0.54	-19.41842745754883	7.391593839818857	32.08743438954475	0	0.9399999998679526	0	44.85448308834349	-10.01476077362768	0	60.18195897382532	1.0503733343934	-4.989030819470281	0	0	44.85448308834349	-10.01476077362768	0	60.18195897382532	1.0503733343934	-4.989030819470281	0	0	-41.91492917940811	-12.88443702208363	5.571539861062703	74.10878406647953	-26.92752026418266	-9.532063443054545	0.01981622386002809	-0.09386125522938824	0	0	0	-13.59792280748075	0	90.16659638549625	-0.09386125522938824	0	0
0.55	-18.65987011743516	5.695908340774221	31.35342123329379	0	0.9399999998679526	0	44.85453766006811	-10.01474152897192	0	60.18190524329519	1.05037239661874	-4.989049455966285	0	0	44.85453766006811	-10.01474152897192	0	60.18190524329519	1.05037239661874	-4.989049455966285	0	0	-41.29281709868287	-11.93804283341233	7.315206831601555	74.75343225250172	-27.35658718664108	-9.203067167831785	0.01823913530939635	-0.09383675599249176	0	0	0	-13.59819279856532	0	90.16655283252616	-0.09383675599249176	0	0
0.5600000000000001	-18.08546131708693	6.166904116313081	30.54096852442251	0	0.9399999998679526	0	44.85894053238569	-10.01339578805836	0	60.1774861140942	1.050295268264112	-4.990286981199069	0	0	44.85894053238569	-10.01339578805836	0	60.1774861140942	1.050295268264112	-4.990286981199069	0	0	-41.91395373948048	-12.52355035819243	7.819042519294398	76.61919984747513	-27.68127458316833	-8.02926037382349	0.01636966986434278	-0.09181745139179673	0	0	0	-13.62075911982058	0	90.16296306089268	-0.09181745139179673	0	0
0.57	-17.69413425014204	6.983476359374027	31.00938828752101	0	0.9399999998679526	0	44.86027423430187	-10.01296410962727	0	60.1761276500008	1.050271558592912	-4.9906911654397	0	0	44.86027423430187	-10.01296410962727	0	60.1761276500008	1.050271558592912	-4.9906911654397	0	0	-42.82672445445581	-12.55004078903879	7.086047642348131	77.76353691646729	-28.54041962797111	-7.944040558912393	0.01460378574355844	-0.09121089870819588	0	0	0	-13.62750509803112	0	90.16188477574993	-0.09121089870819588	0	0
0.58	-17.10416320772911	7.442938106035612	30.19120576950906	0	0.9399999998679526	0	44.86471282738901	-10.01173206632424	0	60.17160536443573	1.050192629820086	-4.991784893518559	0	0	44.86471282738901	-10.01173206632424	0	60.17160536443573	1.050192629820086	-4.991784893518559	0	0	-42.69156420320595	-12.6797351246067	7.012708695381783	78.57416047892956	-29.20733819471131	-6.186527721328311	0.01446795016739001	-0.08914564678846204	0	0	0	-13.6508046039807	0	90.1582133235862	-0.08914564678846204	0	0
